<svg version="1.1" id="Layer_1" xmlns="http://www.w3.org/2000/svg" xmlns:xlink="http://www.w3.org/1999/xlink" x="0px" y="0px"
	 width="100%" viewBox="0 0 940 206" enable-background="new 0 0 940 206" xml:space="preserve">
<path fill="#FCFCFC" opacity="1.000000" stroke="none" 
	d="
M677.000000,207.000000 
	C451.333374,207.000000 226.166718,207.000000 1.000060,207.000000 
	C1.000040,138.333374 1.000040,69.666740 1.000020,1.000079 
	C314.333252,1.000053 627.666504,1.000053 940.999817,1.000026 
	C940.999878,69.666588 940.999878,138.333176 940.999939,206.999878 
	C853.166687,207.000000 765.333313,207.000000 677.000000,207.000000 
M40.179737,104.361832 
	C47.976170,101.131470 55.772602,97.901115 64.085670,94.456703 
	C57.009380,133.090424 84.555389,162.021530 117.285751,162.695480 
	C132.768326,163.014282 146.413101,157.533234 157.278946,146.550430 
	C171.433090,132.243958 176.081375,114.734581 172.054596,94.321617 
	C180.922195,97.984329 189.041046,101.337776 197.159882,104.691223 
	C196.663086,102.431236 195.725616,100.899147 194.545639,99.584778 
	C170.043808,72.292633 139.732239,59.862350 103.148743,65.156517 
	C76.506660,69.012009 55.023342,82.215813 38.299961,104.058136 
	C38.298721,104.331520 38.297482,104.604904 38.296242,104.878288 
	C38.695713,104.793274 39.095188,104.708260 40.179737,104.361832 
M589.537476,140.406677 
	C589.537476,112.778336 589.537476,85.149994 589.537476,56.956184 
	C582.147339,56.956184 575.041565,56.956184 567.770264,56.956184 
	C567.770264,69.209557 567.770264,80.657280 567.770264,92.224991 
	C558.162048,92.224991 548.770935,92.224991 538.997314,92.224991 
	C538.997314,80.389160 538.997314,68.785103 538.997314,56.730591 
	C531.703308,56.730591 524.793884,56.730591 517.782104,56.730591 
	C517.782104,87.706055 517.782104,118.102036 517.782104,148.911133 
	C524.963440,148.911133 531.822327,148.911133 539.251953,148.911133 
	C539.251953,135.617706 539.251953,122.934555 539.251953,110.378220 
	C549.081604,110.378220 558.337524,110.378220 568.079590,110.378220 
	C568.079590,123.254425 568.079590,135.966888 568.079590,148.911224 
	C575.446899,148.911224 582.323975,148.911224 589.537415,148.911224 
	C589.537415,145.984177 589.537415,143.677521 589.537476,140.406677 
M297.409424,56.996277 
	C281.744202,56.996288 266.078278,57.075470 250.414383,56.933247 
	C247.056747,56.902760 245.722961,57.655746 245.746155,61.361240 
	C245.902557,86.357841 245.794083,111.355957 245.846573,136.353424 
	C245.864120,144.707214 250.082397,148.920380 258.454956,148.982285 
	C269.953217,149.067276 281.453308,149.083755 292.951233,148.980743 
	C304.362976,148.878510 309.289215,142.786072 307.431519,130.982925 
	C294.063843,130.982925 280.645569,130.982925 267.129944,130.982925 
	C267.129944,124.427330 267.129944,118.171783 267.129944,111.516174 
	C276.023712,111.516174 284.646240,111.620613 293.260803,111.406296 
	C294.589600,111.373238 296.944946,109.956604 297.014008,109.042900 
	C297.387634,104.100006 297.191132,99.114006 297.191132,93.820618 
	C286.483032,93.820618 276.883453,93.820618 267.130524,93.820618 
	C267.130524,87.413536 267.130524,81.353920 267.130524,75.450783 
	C267.540344,75.217690 267.679108,75.069870 267.818481,75.069344 
	C275.650513,75.039696 283.482574,75.010902 291.314636,75.006195 
	C305.735260,74.997528 306.413116,74.245789 305.012726,59.619274 
	C304.937683,58.835453 304.747620,58.062649 304.560486,56.996277 
	C302.326111,56.996277 300.353821,56.996277 297.409424,56.996277 
M842.709045,149.497101 
	C846.631958,149.253006 850.554871,149.008926 854.847412,148.741852 
	C854.847412,134.754364 854.838318,121.295753 854.852234,107.837173 
	C854.857300,102.917984 858.527466,99.776215 864.295654,99.526299 
	C869.547791,99.298737 870.184692,102.726524 870.231934,106.728500 
	C870.300598,112.550568 870.375854,118.372627 870.475281,124.194229 
	C870.563232,129.348373 870.377808,134.531784 870.871155,139.648483 
	C871.568176,146.877945 874.714478,149.998688 881.832092,149.660294 
	C886.203491,149.452469 890.494690,147.557083 893.639954,146.730209 
	C892.818909,139.519470 891.832642,133.869385 891.604980,128.188904 
	C891.211853,118.381439 891.738464,108.524086 891.062500,98.744125 
	C890.117920,85.079437 879.329285,77.884415 866.244019,81.860588 
	C862.414795,83.024162 858.880310,85.157936 854.846985,87.014450 
	C854.846985,78.356903 854.960327,69.901337 854.814819,61.450230 
	C854.672668,53.193230 851.391174,50.092007 843.149902,49.991142 
	C841.984070,49.976871 840.793091,50.144005 839.656372,49.961720 
	C835.262024,49.257042 834.022339,50.985069 834.051575,55.420849 
	C834.246338,84.901741 834.151978,114.384537 834.151672,143.866714 
	C834.151672,145.450867 834.151611,147.035034 834.151611,148.774277 
	C837.237915,148.983170 839.552795,149.139862 842.709045,149.497101 
M474.921417,132.834824 
	C474.850006,132.985291 474.799133,133.151627 474.699677,133.280411 
	C474.638031,133.360184 474.502594,133.382919 474.400269,133.431244 
	C473.975006,132.408875 473.381653,131.423065 473.149994,130.358551 
	C470.405884,117.747543 467.843140,105.095734 464.973053,92.513870 
	C462.472107,81.550034 459.182068,79.384003 448.122955,81.113144 
	C445.767731,81.481392 443.534546,82.629829 441.092743,83.471352 
	C446.399231,102.826797 451.634003,121.744278 456.746979,140.694611 
	C458.020874,145.416031 461.141296,147.884094 465.625946,148.994675 
	C467.183105,149.380295 468.782867,149.593765 470.405060,149.893616 
	C466.769318,161.970947 463.344177,163.360550 443.845795,160.416290 
	C442.856262,164.383362 441.668701,168.433487 440.946564,172.564957 
	C440.777100,173.534592 441.985382,175.555420 442.889679,175.783279 
	C463.137390,180.884735 479.913177,178.343979 487.149750,155.460480 
	C494.400024,132.533615 499.896729,109.051117 506.055969,85.784088 
	C506.320801,84.783554 505.577423,82.517952 505.209167,82.496925 
	C499.161682,82.151665 493.097626,81.989410 487.042145,82.086594 
	C486.536987,82.094696 485.883606,84.214157 485.607361,85.423119 
	C482.056763,100.960983 478.562317,116.511673 474.921417,132.834824 
M731.105591,138.817047 
	C730.019165,135.799103 728.157043,132.821945 727.995850,129.755371 
	C727.559570,121.456718 727.871643,113.119965 727.840332,104.798508 
	C727.779907,88.739738 719.284546,80.004059 703.213257,80.282585 
	C696.985535,80.390518 690.748291,81.755478 684.581299,82.902443 
	C680.640320,83.635399 676.820251,85.018127 672.575867,86.213806 
	C673.790955,90.160995 674.774719,93.285423 675.713135,96.423401 
	C676.793213,100.035301 678.750793,100.673538 682.428650,99.501602 
	C687.114685,98.008408 692.071960,97.019966 696.976318,96.639854 
	C704.279114,96.073822 706.999023,99.361916 706.250732,107.154465 
	C702.482300,107.154465 698.641357,106.819336 694.887939,107.248802 
	C691.141785,107.677460 687.337830,108.483917 683.814026,109.804642 
	C673.847595,113.540070 668.577942,124.465225 671.086914,135.477554 
	C673.284424,145.122742 682.170349,151.807144 692.734009,150.292496 
	C699.006348,149.393127 704.967346,146.322220 711.068298,144.227692 
	C711.374023,143.479706 711.929871,144.104843 712.586792,144.594162 
	C723.144226,152.458237 727.162720,151.299026 730.989502,140.538879 
	C731.101013,140.225266 731.213196,139.911911 731.105591,138.817047 
M318.222992,119.904472 
	C314.201263,130.296432 315.427155,139.869629 322.624847,145.478271 
	C334.236023,154.526093 345.452637,150.914307 354.908966,143.761154 
	C359.886566,145.924149 363.895569,148.187637 368.201111,149.255127 
	C369.713593,149.630142 372.631317,147.484634 373.692230,145.747772 
	C375.059662,143.509094 375.873474,140.483200 375.710876,137.871979 
	C375.504608,134.558670 373.449371,131.349701 373.300201,128.045670 
	C372.895172,119.074547 373.292053,110.069153 372.967133,101.091965 
	C372.575592,90.275032 366.413788,83.263367 355.793427,80.984741 
	C345.882965,78.858421 336.340088,81.310638 326.833588,83.586891 
	C317.594513,85.799118 316.910065,87.520676 321.103943,96.298965 
	C321.175476,96.448769 321.297729,96.581497 321.339355,96.737404 
	C322.303955,100.350037 324.601349,100.542786 327.794556,99.670357 
	C332.406860,98.410225 337.090363,97.199554 341.822998,96.639610 
	C349.306763,95.754150 352.428070,99.236008 351.545990,107.002930 
	C349.110260,107.002930 346.646484,106.961464 344.184509,107.010139 
	C333.812683,107.215202 324.358490,109.355476 318.222992,119.904472 
M619.610107,82.924232 
	C616.414307,85.758026 612.453613,88.080925 610.158997,91.516617 
	C601.556824,104.396896 602.343018,118.532318 606.375671,132.629807 
	C609.052856,141.988739 615.790039,147.896210 625.232666,149.726730 
	C633.925659,151.411911 642.597595,150.631149 651.163452,147.563736 
	C661.153870,143.986191 662.919861,141.882462 654.403198,131.142456 
	C649.646301,132.251984 645.041382,133.577148 640.346558,134.368423 
	C630.789917,135.979111 625.998901,132.045822 625.215088,122.007683 
	C631.039734,122.007683 636.842712,122.007683 642.645691,122.007683 
	C648.407471,122.007683 654.169189,122.007683 660.311707,122.007683 
	C660.854614,117.409531 661.729187,113.312866 661.751343,109.211609 
	C661.825989,95.390419 655.229858,83.969604 641.184143,80.712265 
	C634.005554,79.047485 627.034058,79.799255 619.610107,82.924232 
M388.222626,90.894707 
	C382.086578,104.064850 386.713257,115.842491 400.195892,121.227104 
	C403.742981,122.643707 407.620300,123.440811 410.857666,125.350258 
	C412.899139,126.554352 414.034210,129.295227 415.575836,131.346741 
	C413.515656,132.637589 411.318176,135.196579 409.420044,134.991058 
	C402.636536,134.256561 395.954590,132.584152 388.269226,131.077393 
	C387.260468,133.291229 385.569244,136.658554 384.189789,140.149063 
	C383.244934,142.539948 383.725159,144.382965 386.533539,145.637680 
	C398.875580,151.151749 411.421875,152.512451 424.301270,147.906281 
	C432.708191,144.899628 437.063080,138.577591 437.439972,129.841370 
	C437.806000,121.356758 434.255127,114.565018 426.566162,110.629501 
	C421.717255,108.147629 416.324371,106.720123 411.506897,104.188988 
	C409.409027,103.086769 408.142700,100.401917 406.498718,98.435822 
	C408.793854,97.294899 411.246399,94.962616 413.353973,95.241112 
	C419.188843,96.012161 424.879913,97.871910 431.974854,99.636322 
	C433.528839,95.361519 435.294769,90.503731 437.341370,84.873878 
	C429.735840,83.070877 423.698212,81.085457 417.507843,80.293396 
	C406.405914,78.872902 395.875610,80.066681 388.222626,90.894707 
M807.178223,79.188583 
	C807.178223,73.441628 807.178223,67.694679 807.178223,60.746063 
	C801.199646,61.634266 795.381042,61.137333 791.067688,63.448967 
	C784.070923,67.198700 787.587646,75.404968 785.953064,81.956177 
	C782.620422,81.956177 779.360535,81.956177 775.915771,81.956177 
	C775.915771,87.047195 775.915771,91.692612 775.915771,96.707397 
	C779.777100,96.707397 782.881836,96.707397 786.472961,96.707397 
	C786.472961,98.695946 786.458130,100.314705 786.475342,101.933121 
	C786.588562,112.577980 786.471924,123.232193 786.895142,133.864853 
	C787.296326,143.945251 792.694336,149.061859 802.718384,149.117737 
	C809.003723,149.152756 815.292297,148.599243 822.462036,148.269150 
	C821.988342,142.977356 821.558899,138.180862 821.107422,133.137344 
	C817.693604,133.137344 815.213928,133.094086 812.736328,133.147736 
	C809.209167,133.224091 807.318054,131.240356 807.266602,128.025345 
	C807.099548,117.586449 807.204163,107.143204 807.204163,96.344070 
	C812.737305,96.344070 817.785400,96.344070 823.212280,96.344070 
	C823.212280,91.329369 823.212280,86.687553 823.212280,81.820580 
	C818.320984,81.820580 814.168579,81.924767 810.028687,81.743370 
	C809.059326,81.700890 808.132263,80.691399 807.178223,79.188583 
M763.853394,105.500008 
	C763.853088,93.024567 763.852722,80.549126 763.852417,68.073685 
	C763.852051,51.068211 761.402893,48.813564 744.372498,50.150177 
	C744.226013,50.161678 744.087708,50.276737 743.459290,50.571663 
	C743.459290,52.125301 743.459290,53.921936 743.459290,55.718571 
	C743.459290,79.837753 743.459167,103.956940 743.459229,128.076126 
	C743.459229,145.756851 747.622742,149.734558 765.377930,149.017715 
	C775.539001,148.607468 777.057312,146.581116 774.103699,136.589767 
	C773.693481,135.202423 771.715088,133.333298 770.437683,133.313660 
	C765.283325,133.234360 763.808105,130.459320 763.841614,125.961578 
	C763.889954,119.474709 763.853638,112.987213 763.853394,105.500008 
z"/>
<path fill="#171717" opacity="1.000000" stroke="none" 
	d="
M38.845810,103.850716 
	C55.023342,82.215813 76.506660,69.012009 103.148743,65.156517 
	C139.732239,59.862350 170.043808,72.292633 194.545639,99.584778 
	C195.725616,100.899147 196.663086,102.431236 197.159882,104.691223 
	C189.041046,101.337776 180.922195,97.984329 172.054596,94.321617 
	C176.081375,114.734581 171.433090,132.243958 157.278946,146.550430 
	C146.413101,157.533234 132.768326,163.014282 117.285751,162.695480 
	C84.555389,162.021530 57.009380,133.090424 64.085670,94.456703 
	C55.772602,97.901115 47.976170,101.131470 39.684410,104.291496 
	C39.074657,104.097672 38.960232,103.974190 38.845810,103.850716 
M159.994537,109.266800 
	C159.109634,103.754822 158.313858,98.225822 157.267319,92.744705 
	C157.048569,91.599091 156.082550,89.928741 155.157776,89.693893 
	C149.246964,88.192955 143.251465,87.025566 136.133301,85.502213 
	C149.031525,100.833862 149.294159,115.827446 137.832932,127.469803 
	C127.917816,137.541626 111.528114,138.224792 100.227982,129.037308 
	C87.422821,118.626190 86.958427,104.006805 99.233231,85.722572 
	C93.632149,86.888519 88.431999,87.771088 83.363953,89.141991 
	C81.742943,89.580467 79.732887,91.021049 79.151649,92.496033 
	C70.772484,113.759766 81.107948,138.244705 103.028893,146.302292 
	C130.566940,156.424591 156.642456,139.407288 159.994537,109.266800 
M122.084618,95.716026 
	C118.065742,100.978271 119.184769,107.308731 124.574333,109.800644 
	C128.548370,111.638077 133.005630,110.485092 135.521683,106.968857 
	C137.990707,103.518349 137.617905,98.640694 134.658340,95.673592 
	C131.292328,92.298996 127.306625,92.120850 122.084618,95.716026 
z"/>
<path fill="#181818" opacity="1.000000" stroke="none" 
	d="
M589.537476,140.888763 
	C589.537415,143.677521 589.537415,145.984177 589.537415,148.911224 
	C582.323975,148.911224 575.446899,148.911224 568.079590,148.911224 
	C568.079590,135.966888 568.079590,123.254425 568.079590,110.378220 
	C558.337524,110.378220 549.081604,110.378220 539.251953,110.378220 
	C539.251953,122.934555 539.251953,135.617706 539.251953,148.911133 
	C531.822327,148.911133 524.963440,148.911133 517.782104,148.911133 
	C517.782104,118.102036 517.782104,87.706055 517.782104,56.730591 
	C524.793884,56.730591 531.703308,56.730591 538.997314,56.730591 
	C538.997314,68.785103 538.997314,80.389160 538.997314,92.224991 
	C548.770935,92.224991 558.162048,92.224991 567.770264,92.224991 
	C567.770264,80.657280 567.770264,69.209557 567.770264,56.956184 
	C575.041565,56.956184 582.147339,56.956184 589.537476,56.956184 
	C589.537476,85.149994 589.537476,112.778336 589.537476,140.888763 
z"/>
<path fill="#131313" opacity="1.000000" stroke="none" 
	d="
M297.895477,56.996277 
	C300.353821,56.996277 302.326111,56.996277 304.560486,56.996277 
	C304.747620,58.062649 304.937683,58.835453 305.012726,59.619274 
	C306.413116,74.245789 305.735260,74.997528 291.314636,75.006195 
	C283.482574,75.010902 275.650513,75.039696 267.818481,75.069344 
	C267.679108,75.069870 267.540344,75.217690 267.130524,75.450783 
	C267.130524,81.353920 267.130524,87.413536 267.130524,93.820618 
	C276.883453,93.820618 286.483032,93.820618 297.191132,93.820618 
	C297.191132,99.114006 297.387634,104.100006 297.014008,109.042900 
	C296.944946,109.956604 294.589600,111.373238 293.260803,111.406296 
	C284.646240,111.620613 276.023712,111.516174 267.129944,111.516174 
	C267.129944,118.171783 267.129944,124.427330 267.129944,130.982925 
	C280.645569,130.982925 294.063843,130.982925 307.431519,130.982925 
	C309.289215,142.786072 304.362976,148.878510 292.951233,148.980743 
	C281.453308,149.083755 269.953217,149.067276 258.454956,148.982285 
	C250.082397,148.920380 245.864120,144.707214 245.846573,136.353424 
	C245.794083,111.355957 245.902557,86.357841 245.746155,61.361240 
	C245.722961,57.655746 247.056747,56.902760 250.414383,56.933247 
	C266.078278,57.075470 281.744202,56.996288 297.895477,56.996277 
z"/>
<path fill="#171717" opacity="1.000000" stroke="none" 
	d="
M842.288330,149.396820 
	C839.552795,149.139862 837.237915,148.983170 834.151611,148.774277 
	C834.151611,147.035034 834.151672,145.450867 834.151672,143.866714 
	C834.151978,114.384537 834.246338,84.901741 834.051575,55.420849 
	C834.022339,50.985069 835.262024,49.257042 839.656372,49.961720 
	C840.793091,50.144005 841.984070,49.976871 843.149902,49.991142 
	C851.391174,50.092007 854.672668,53.193230 854.814819,61.450230 
	C854.960327,69.901337 854.846985,78.356903 854.846985,87.014450 
	C858.880310,85.157936 862.414795,83.024162 866.244019,81.860588 
	C879.329285,77.884415 890.117920,85.079437 891.062500,98.744125 
	C891.738464,108.524086 891.211853,118.381439 891.604980,128.188904 
	C891.832642,133.869385 892.818909,139.519470 893.639954,146.730209 
	C890.494690,147.557083 886.203491,149.452469 881.832092,149.660294 
	C874.714478,149.998688 871.568176,146.877945 870.871155,139.648483 
	C870.377808,134.531784 870.563232,129.348373 870.475281,124.194229 
	C870.375854,118.372627 870.300598,112.550568 870.231934,106.728500 
	C870.184692,102.726524 869.547791,99.298737 864.295654,99.526299 
	C858.527466,99.776215 854.857300,102.917984 854.852234,107.837173 
	C854.838318,121.295753 854.847412,134.754364 854.847412,148.741852 
	C850.554871,149.008926 846.631958,149.253006 842.288330,149.396820 
z"/>
<path fill="#161616" opacity="1.000000" stroke="none" 
	d="
M474.987549,132.446960 
	C478.562317,116.511673 482.056763,100.960983 485.607361,85.423119 
	C485.883606,84.214157 486.536987,82.094696 487.042145,82.086594 
	C493.097626,81.989410 499.161682,82.151665 505.209167,82.496925 
	C505.577423,82.517952 506.320801,84.783554 506.055969,85.784088 
	C499.896729,109.051117 494.400024,132.533615 487.149750,155.460480 
	C479.913177,178.343979 463.137390,180.884735 442.889679,175.783279 
	C441.985382,175.555420 440.777100,173.534592 440.946564,172.564957 
	C441.668701,168.433487 442.856262,164.383362 443.845795,160.416290 
	C463.344177,163.360550 466.769318,161.970947 470.405060,149.893616 
	C468.782867,149.593765 467.183105,149.380295 465.625946,148.994675 
	C461.141296,147.884094 458.020874,145.416031 456.746979,140.694611 
	C451.634003,121.744278 446.399231,102.826797 441.092743,83.471352 
	C443.534546,82.629829 445.767731,81.481392 448.122955,81.113144 
	C459.182068,79.384003 462.472107,81.550034 464.973053,92.513870 
	C467.843140,105.095734 470.405884,117.747543 473.149994,130.358551 
	C473.381653,131.423065 473.975006,132.408875 474.400269,133.431244 
	C474.502594,133.382919 474.638031,133.360184 474.699677,133.280411 
	C474.799133,133.151627 474.850006,132.985291 474.987549,132.446960 
z"/>
<path fill="#161616" opacity="1.000000" stroke="none" 
	d="
M731.215332,139.207733 
	C731.213196,139.911911 731.101013,140.225266 730.989502,140.538879 
	C727.162720,151.299026 723.144226,152.458237 712.586792,144.594162 
	C711.929871,144.104843 711.374023,143.479706 711.068298,144.227692 
	C704.967346,146.322220 699.006348,149.393127 692.734009,150.292496 
	C682.170349,151.807144 673.284424,145.122742 671.086914,135.477554 
	C668.577942,124.465225 673.847595,113.540070 683.814026,109.804642 
	C687.337830,108.483917 691.141785,107.677460 694.887939,107.248802 
	C698.641357,106.819336 702.482300,107.154465 706.250732,107.154465 
	C706.999023,99.361916 704.279114,96.073822 696.976318,96.639854 
	C692.071960,97.019966 687.114685,98.008408 682.428650,99.501602 
	C678.750793,100.673538 676.793213,100.035301 675.713135,96.423401 
	C674.774719,93.285423 673.790955,90.160995 672.575867,86.213806 
	C676.820251,85.018127 680.640320,83.635399 684.581299,82.902443 
	C690.748291,81.755478 696.985535,80.390518 703.213257,80.282585 
	C719.284546,80.004059 727.779907,88.739738 727.840332,104.798508 
	C727.871643,113.119965 727.559570,121.456718 727.995850,129.755371 
	C728.157043,132.821945 730.019165,135.799103 731.215332,139.207733 
M701.486694,134.247849 
	C707.599548,131.521957 708.178528,129.860962 706.137207,120.468468 
	C701.342224,121.023247 695.519470,118.522545 692.373962,124.090118 
	C691.127014,126.297195 690.751160,130.808609 692.111023,132.227921 
	C693.901550,134.096710 697.793640,133.951904 701.486694,134.247849 
z"/>
<path fill="#151515" opacity="1.000000" stroke="none" 
	d="
M318.435425,119.590057 
	C324.358490,109.355476 333.812683,107.215202 344.184509,107.010139 
	C346.646484,106.961464 349.110260,107.002930 351.545990,107.002930 
	C352.428070,99.236008 349.306763,95.754150 341.822998,96.639610 
	C337.090363,97.199554 332.406860,98.410225 327.794556,99.670357 
	C324.601349,100.542786 322.303955,100.350037 321.339355,96.737404 
	C321.297729,96.581497 321.175476,96.448769 321.103943,96.298965 
	C316.910065,87.520676 317.594513,85.799118 326.833588,83.586891 
	C336.340088,81.310638 345.882965,78.858421 355.793427,80.984741 
	C366.413788,83.263367 372.575592,90.275032 372.967133,101.091965 
	C373.292053,110.069153 372.895172,119.074547 373.300201,128.045670 
	C373.449371,131.349701 375.504608,134.558670 375.710876,137.871979 
	C375.873474,140.483200 375.059662,143.509094 373.692230,145.747772 
	C372.631317,147.484634 369.713593,149.630142 368.201111,149.255127 
	C363.895569,148.187637 359.886566,145.924149 354.908966,143.761154 
	C345.452637,150.914307 334.236023,154.526093 322.624847,145.478271 
	C315.427155,139.869629 314.201263,130.296432 318.435425,119.590057 
M341.710175,120.829445 
	C337.446472,122.977486 335.294800,127.441055 336.888641,131.370132 
	C338.692230,135.816330 342.574493,135.544312 346.214966,134.720520 
	C351.934509,133.426285 353.190979,129.732452 351.295197,120.374535 
	C348.425201,120.506737 345.480621,120.642380 341.710175,120.829445 
z"/>
<path fill="#151515" opacity="1.000000" stroke="none" 
	d="
M619.913757,82.688995 
	C627.034058,79.799255 634.005554,79.047485 641.184143,80.712265 
	C655.229858,83.969604 661.825989,95.390419 661.751343,109.211609 
	C661.729187,113.312866 660.854614,117.409531 660.311707,122.007683 
	C654.169189,122.007683 648.407471,122.007683 642.645691,122.007683 
	C636.842712,122.007683 631.039734,122.007683 625.215088,122.007683 
	C625.998901,132.045822 630.789917,135.979111 640.346558,134.368423 
	C645.041382,133.577148 649.646301,132.251984 654.403198,131.142456 
	C662.919861,141.882462 661.153870,143.986191 651.163452,147.563736 
	C642.597595,150.631149 633.925659,151.411911 625.232666,149.726730 
	C615.790039,147.896210 609.052856,141.988739 606.375671,132.629807 
	C602.343018,118.532318 601.556824,104.396896 610.158997,91.516617 
	C612.453613,88.080925 616.414307,85.758026 619.913757,82.688995 
M630.651062,107.563431 
	C634.534973,107.563431 638.418884,107.563431 642.318726,107.563431 
	C641.887085,98.091515 639.201965,94.579315 633.168030,94.800217 
	C627.622070,95.003258 624.729736,99.561790 625.315979,107.563332 
	C626.766052,107.563332 628.242615,107.563332 630.651062,107.563431 
z"/>
<path fill="#171717" opacity="1.000000" stroke="none" 
	d="
M388.432465,90.585938 
	C395.875610,80.066681 406.405914,78.872902 417.507843,80.293396 
	C423.698212,81.085457 429.735840,83.070877 437.341370,84.873878 
	C435.294769,90.503731 433.528839,95.361519 431.974854,99.636322 
	C424.879913,97.871910 419.188843,96.012161 413.353973,95.241112 
	C411.246399,94.962616 408.793854,97.294899 406.498718,98.435822 
	C408.142700,100.401917 409.409027,103.086769 411.506897,104.188988 
	C416.324371,106.720123 421.717255,108.147629 426.566162,110.629501 
	C434.255127,114.565018 437.806000,121.356758 437.439972,129.841370 
	C437.063080,138.577591 432.708191,144.899628 424.301270,147.906281 
	C411.421875,152.512451 398.875580,151.151749 386.533539,145.637680 
	C383.725159,144.382965 383.244934,142.539948 384.189789,140.149063 
	C385.569244,136.658554 387.260468,133.291229 388.269226,131.077393 
	C395.954590,132.584152 402.636536,134.256561 409.420044,134.991058 
	C411.318176,135.196579 413.515656,132.637589 415.575836,131.346741 
	C414.034210,129.295227 412.899139,126.554352 410.857666,125.350258 
	C407.620300,123.440811 403.742981,122.643707 400.195892,121.227104 
	C386.713257,115.842491 382.086578,104.064850 388.432465,90.585938 
z"/>
<path fill="#151515" opacity="1.000000" stroke="none" 
	d="
M807.182007,79.657692 
	C808.132263,80.691399 809.059326,81.700890 810.028687,81.743370 
	C814.168579,81.924767 818.320984,81.820580 823.212280,81.820580 
	C823.212280,86.687553 823.212280,91.329369 823.212280,96.344070 
	C817.785400,96.344070 812.737305,96.344070 807.204163,96.344070 
	C807.204163,107.143204 807.099548,117.586449 807.266602,128.025345 
	C807.318054,131.240356 809.209167,133.224091 812.736328,133.147736 
	C815.213928,133.094086 817.693604,133.137344 821.107422,133.137344 
	C821.558899,138.180862 821.988342,142.977356 822.462036,148.269150 
	C815.292297,148.599243 809.003723,149.152756 802.718384,149.117737 
	C792.694336,149.061859 787.296326,143.945251 786.895142,133.864853 
	C786.471924,123.232193 786.588562,112.577980 786.475342,101.933121 
	C786.458130,100.314705 786.472961,98.695946 786.472961,96.707397 
	C782.881836,96.707397 779.777100,96.707397 775.915771,96.707397 
	C775.915771,91.692612 775.915771,87.047195 775.915771,81.956177 
	C779.360535,81.956177 782.620422,81.956177 785.953064,81.956177 
	C787.587646,75.404968 784.070923,67.198700 791.067688,63.448967 
	C795.381042,61.137333 801.199646,61.634266 807.178223,60.746063 
	C807.178223,67.694679 807.178223,73.441628 807.182007,79.657692 
z"/>
<path fill="#191919" opacity="1.000000" stroke="none" 
	d="
M763.853394,106.000000 
	C763.853638,112.987213 763.889954,119.474709 763.841614,125.961578 
	C763.808105,130.459320 765.283325,133.234360 770.437683,133.313660 
	C771.715088,133.333298 773.693481,135.202423 774.103699,136.589767 
	C777.057312,146.581116 775.539001,148.607468 765.377930,149.017715 
	C747.622742,149.734558 743.459229,145.756851 743.459229,128.076126 
	C743.459167,103.956940 743.459290,79.837753 743.459290,55.718571 
	C743.459290,53.921936 743.459290,52.125301 743.459290,50.571663 
	C744.087708,50.276737 744.226013,50.161678 744.372498,50.150177 
	C761.402893,48.813564 763.852051,51.068211 763.852417,68.073685 
	C763.852722,80.549126 763.853088,93.024567 763.853394,106.000000 
z"/>
<path fill="#171717" opacity="1.000000" stroke="none" 
	d="
M39.341869,104.422203 
	C39.095188,104.708260 38.695713,104.793274 38.296242,104.878288 
	C38.297482,104.604904 38.298721,104.331520 38.572884,103.954422 
	C38.960232,103.974190 39.074657,104.097672 39.341869,104.422203 
z"/>
<path fill="#FAFAFA" opacity="1.000000" stroke="none" 
	d="
M159.990204,109.721146 
	C156.642456,139.407288 130.566940,156.424591 103.028893,146.302292 
	C81.107948,138.244705 70.772484,113.759766 79.151649,92.496033 
	C79.732887,91.021049 81.742943,89.580467 83.363953,89.141991 
	C88.431999,87.771088 93.632149,86.888519 99.233231,85.722572 
	C86.958427,104.006805 87.422821,118.626190 100.227982,129.037308 
	C111.528114,138.224792 127.917816,137.541626 137.832932,127.469803 
	C149.294159,115.827446 149.031525,100.833862 136.133301,85.502213 
	C143.251465,87.025566 149.246964,88.192955 155.157776,89.693893 
	C156.082550,89.928741 157.048569,91.599091 157.267319,92.744705 
	C158.313858,98.225822 159.109634,103.754822 159.990204,109.721146 
z"/>
<path fill="#F9F9F9" opacity="1.000000" stroke="none" 
	d="
M122.360397,95.426140 
	C127.306625,92.120850 131.292328,92.298996 134.658340,95.673592 
	C137.617905,98.640694 137.990707,103.518349 135.521683,106.968857 
	C133.005630,110.485092 128.548370,111.638077 124.574333,109.800644 
	C119.184769,107.308731 118.065742,100.978271 122.360397,95.426140 
z"/>
<path fill="#EFEFEF" opacity="1.000000" stroke="none" 
	d="
M701.134399,134.460358 
	C697.793640,133.951904 693.901550,134.096710 692.111023,132.227921 
	C690.751160,130.808609 691.127014,126.297195 692.373962,124.090118 
	C695.519470,118.522545 701.342224,121.023247 706.137207,120.468468 
	C708.178528,129.860962 707.599548,131.521957 701.134399,134.460358 
z"/>
<path fill="#F0F0F0" opacity="1.000000" stroke="none" 
	d="
M342.123108,120.803734 
	C345.480621,120.642380 348.425201,120.506737 351.295197,120.374535 
	C353.190979,129.732452 351.934509,133.426285 346.214966,134.720520 
	C342.574493,135.544312 338.692230,135.816330 336.888641,131.370132 
	C335.294800,127.441055 337.446472,122.977486 342.123108,120.803734 
z"/>
<path fill="#EAEAEA" opacity="1.000000" stroke="none" 
	d="
M630.185059,107.563385 
	C628.242615,107.563332 626.766052,107.563332 625.315979,107.563332 
	C624.729736,99.561790 627.622070,95.003258 633.168030,94.800217 
	C639.201965,94.579315 641.887085,98.091515 642.318726,107.563431 
	C638.418884,107.563431 634.534973,107.563431 630.185059,107.563385 
z"/>
</svg>