<?xml version="1.0" standalone="no"?>
<!DOCTYPE svg PUBLIC "-//W3C//DTD SVG 20010904//EN"
 "http://www.w3.org/TR/2001/REC-SVG-20010904/DTD/svg10.dtd">
<svg version="1.0" xmlns="http://www.w3.org/2000/svg"
     x="0.00158691" y="13.9762" width="250" height="70"
     viewBox="0 0 940.000000 206.000000"
 preserveAspectRatio="xMidYMid meet">

    <g transform="translate(0.000000,206.000000) scale(0.100000,-0.100000)"
fill="#ffffff" stroke="none">
<path d="M7430 1129 c0 -392 2 -445 17 -476 23 -50 78 -73 168 -72 104 1 119
8 123 51 2 20 -1 51 -6 70 -7 28 -13 33 -43 36 -18 2 -40 8 -46 14 -10 8 -13
92 -13 362 0 217 -4 366 -11 389 -13 47 -52 67 -134 67 l-55 0 0 -441z"/>
<path d="M8335 1558 c-3 -7 -4 -229 -3 -493 l3 -480 100 0 100 0 3 228 2 228
46 21 c99 43 114 13 114 -235 0 -228 11 -251 121 -250 25 0 60 8 78 18 27 13
32 21 27 38 -18 58 -26 157 -26 311 0 152 -2 174 -21 213 -53 109 -189 136
-303 58 l-36 -24 0 137 c0 171 -9 209 -55 228 -43 18 -144 19 -150 2z"/>
<path d="M5212 1503 l-42 -4 2 -457 3 -457 100 0 100 0 3 193 2 192 145 0 145
0 2 -192 3 -193 103 -3 102 -3 0 459 0 459 -52 5 c-29 3 -77 3 -105 1 l-53 -6
0 -178 0 -179 -145 0 -145 0 0 180 0 180 -34 0 c-18 0 -46 2 -62 4 -16 2 -48
1 -72 -1z"/>
<path d="M2457 1493 c-4 -3 -7 -191 -7 -417 0 -308 3 -417 13 -436 26 -53 62
-60 292 -60 180 0 215 3 245 18 40 19 61 56 68 119 l5 43 -207 0 -206 0 0 100
0 100 149 0 150 0 6 54 c4 30 3 67 -2 83 l-10 28 -146 3 -147 3 0 94 0 95 180
0 180 0 10 26 c6 14 10 54 10 90 l0 64 -288 0 c-159 0 -292 -3 -295 -7z"/>
<path d="M7899 1437 c-28 -22 -39 -55 -39 -121 l0 -66 -54 0 -53 0 -7 -46
c-10 -79 -2 -93 57 -96 l52 -3 5 -217 c6 -242 9 -254 81 -290 36 -19 134 -24
223 -12 l46 7 0 48 c0 26 -4 59 -10 73 -9 24 -15 26 -64 26 -44 0 -57 4 -66
19 -6 11 -10 90 -10 185 l0 166 79 0 79 0 6 35 c4 19 4 51 0 70 l-6 35 -79 0
-79 0 0 100 0 100 -72 0 c-42 0 -80 -6 -89 -13z"/>
<path d="M1004 1415 c-150 -27 -263 -73 -389 -158 -65 -44 -170 -140 -217
-199 l-29 -38 38 16 c21 9 56 24 79 34 40 18 124 50 134 50 3 0 5 -55 6 -122
1 -100 5 -134 23 -183 79 -217 291 -366 521 -367 154 0 280 52 391 163 115
114 167 255 157 428 l-5 88 71 -28 c39 -15 97 -39 129 -53 48 -22 56 -23 48
-9 -18 34 -176 181 -236 221 -215 143 -480 201 -721 157z m-37 -232 c-33 -35
-63 -104 -72 -165 -10 -69 16 -149 68 -205 58 -63 107 -85 199 -91 65 -4 84
-1 123 18 94 45 153 130 162 232 8 78 -11 139 -59 193 l-40 45 29 -1 c15 0 62
-8 103 -17 l74 -17 18 -55 c84 -271 -115 -540 -401 -540 -90 0 -156 18 -223
61 -141 91 -221 274 -189 431 19 93 28 103 113 121 40 8 84 15 97 16 l25 1
-27 -27z m368 -68 c50 -49 24 -133 -46 -150 -62 -15 -123 57 -100 118 22 58
103 76 146 32z"/>
<path d="M3390 1259 c-36 -5 -96 -17 -135 -27 l-70 -17 2 -42 c1 -23 9 -56 18
-73 18 -36 11 -35 144 -6 41 9 87 14 103 11 33 -8 58 -39 58 -76 0 -26 -1 -26
-88 -31 -106 -6 -163 -29 -214 -86 -119 -132 -39 -337 134 -343 71 -3 114 10
180 55 27 17 28 17 63 -9 21 -16 53 -29 78 -32 42 -5 43 -5 67 40 22 41 23 48
10 74 -10 20 -16 85 -20 228 -5 196 -6 201 -32 242 -50 77 -162 112 -298 92z
m120 -449 c0 -56 -2 -60 -31 -75 -16 -9 -47 -15 -67 -13 -48 4 -69 41 -52 93
13 38 42 53 108 54 l42 1 0 -60z"/>
<path d="M3997 1256 c-57 -21 -107 -64 -128 -110 -22 -50 -25 -136 -4 -175 25
-49 92 -97 181 -131 86 -32 114 -58 101 -94 -16 -40 -129 -38 -224 4 l-44 19
-25 -54 c-14 -30 -24 -63 -22 -72 5 -25 107 -63 187 -72 143 -14 244 16 305
92 26 33 31 48 34 107 4 61 1 75 -22 114 -30 51 -83 86 -185 123 -73 27 -101
47 -101 74 0 44 80 51 183 15 74 -25 76 -24 102 37 29 70 23 82 -52 106 -86
29 -232 37 -286 17z"/>
<path d="M6240 1261 c-91 -28 -161 -102 -191 -204 -18 -58 -21 -85 -16 -170 7
-135 20 -171 87 -238 70 -70 113 -84 248 -77 102 6 171 28 204 64 14 17 15 24
3 58 -23 65 -30 68 -114 46 -41 -11 -87 -20 -102 -20 -63 0 -102 33 -115 98
l-6 32 175 0 176 0 5 33 c14 89 14 113 5 165 -13 71 -29 102 -75 146 -64 62
-196 93 -284 67z m151 -171 c10 -14 19 -41 21 -60 l3 -35 -89 -3 -89 -3 6 48
c7 60 34 85 90 81 29 -2 45 -10 58 -28z"/>
<path d="M6960 1264 c-52 -6 -213 -43 -229 -53 -11 -7 -11 -18 3 -63 23 -82
28 -84 140 -58 115 27 157 19 175 -32 19 -54 18 -55 -82 -61 -179 -10 -267
-88 -267 -233 0 -70 27 -122 83 -161 36 -25 49 -28 126 -28 81 0 89 2 136 34
39 26 52 31 65 22 57 -42 78 -51 110 -49 30 3 38 9 59 47 23 41 23 45 7 71
-13 23 -16 57 -16 183 0 184 -11 249 -48 297 -50 63 -153 96 -262 84z m100
-453 c0 -57 -1 -59 -34 -75 -43 -20 -90 -21 -110 0 -16 16 -21 59 -10 89 9 24
61 44 112 45 l42 0 0 -59z"/>
<path d="M4433 1248 c-33 -16 -40 24 73 -398 62 -232 77 -257 153 -267 37 -5
41 -8 35 -27 -13 -42 -45 -84 -75 -96 -20 -9 -55 -11 -108 -7 l-79 6 -13 -31
c-7 -17 -13 -49 -13 -71 -1 -36 2 -41 29 -49 17 -6 73 -10 125 -11 110 -1 168
20 220 79 72 82 80 106 250 767 16 60 20 91 13 98 -13 13 -112 23 -155 15
l-33 -6 -39 -172 c-71 -323 -78 -350 -86 -341 -4 4 -13 44 -20 88 -7 44 -29
150 -50 235 -46 186 -57 200 -148 199 -31 0 -67 -5 -79 -11z"/>
</g>
</svg>
